<?xml version="1.0" encoding="iso-8859-1"?>
<!-- Generator: Adobe Illustrator 19.0.0, SVG Export Plug-In . SVG Version: 6.00 Build 0)  -->
<svg version="1.1" id="Layer_1" xmlns="http://www.w3.org/2000/svg" xmlns:xlink="http://www.w3.org/1999/xlink" x="0px" y="0px"
	 viewBox="0 0 490 490" style="enable-background:new 0 0 490 490;" xml:space="preserve">
<g>
	<g>
		<path d="M172.05,0h-154c-9.9,0-18,8.1-18,18c0,0,0,154,0,154c0,9.9,8.1,18,18,18c9.9,0,18-8.1,18-18V36h136c9.9,0,18-8.1,18-18
			S181.95,0,172.05,0z"/>
	</g>
</g>
<g>
	<g>
		<path d="M489.85,18c0-9.9-8.1-18-18-18h-153.9c-9.9,0-18,8.1-18,18s8.1,18,18,18h136v136c0,9.9,8.1,18,18,18c9.9,0,18-8.1,18-18
			V18H489.85z"/>
	</g>
</g>
<g>
	<g>
		<path d="M489.85,318c0-9.9-8.1-18-18-18c-9.9,0-18,8.1-18,18v136h-135.9c-9.9,0-18,8.1-18,18c0,9.9,8.1,18,18,18h154
			c9.9,0,18-8.1,18-18V318H489.85z"/>
	</g>
</g>
<g>
	<g>
		<path d="M172.05,454h-136V318c0-9.9-8.1-18-18-18c-9.9,0-18,8.1-18,18c0,0,0,154,0,154c0,9.9,8.1,18,18,18h154c9.9,0,18-8.1,18-18
			C190.05,462.1,181.95,454,172.05,454z"/>
	</g>
</g>
<g>
	<g>
		<path d="M338.65,257.5c-6-7.9-17.3-9.5-25.2-3.5c-7.9,6-9.5,17.3-3.5,25.2c10.7,14.2,16.4,31.1,16.4,49v50.3h-162.7v-50.3
			c0-44.8,36.5-81.3,81.3-81.3c47.2,0,85.7-38.4,85.7-85.7c0-47.3-38.5-85.6-85.7-85.6s-85.7,38.4-85.7,85.7
			c0,5.8,0.6,11.7,1.8,17.4c2,9.7,11.5,16,21.3,14c9.7-2,16-11.5,14-21.3c-0.7-3.3-1-6.7-1-10.1c0-27.4,22.3-49.7,49.7-49.7
			c27.4,0,49.7,22.3,49.7,49.7c0,27.4-22.3,49.7-49.7,49.7c-64.7,0-117.3,52.6-117.3,117.3V380c0,19,15.5,34.5,34.5,34.5h165.6
			c19,0,34.5-15.5,34.5-34.5v-51.8C362.35,302.5,354.15,278,338.65,257.5z"/>
	</g>
</g>
<g>
</g>
<g>
</g>
<g>
</g>
<g>
</g>
<g>
</g>
<g>
</g>
<g>
</g>
<g>
</g>
<g>
</g>
<g>
</g>
<g>
</g>
<g>
</g>
<g>
</g>
<g>
</g>
<g>
</g>
</svg>
